#!OML:ASF F:\VICON\USERDATA\INSTALL\rory3\rory3.ASF
:FULLY-SPECIFIED
:DEGREES
57
root -0.7247284484750669 17.323827697035473 22.735623994091213 2.588179932406188 -2.117530342905428 -5.638412545276453
lfemur -36.687006411847115 6.397212766729428 -11.739156803373163
ltibia 104.10117257170077
lfoot -2.6392176234047446 -9.653993426539106
ltoes -6.38975454304929
rfemur -5.5504436189172495 4.775853488604694 36.74593051167297
rtibia 44.34829749313653
rfoot -17.0065253744686 -12.972817646816473
rtoes -13.071817443152453
lowerback 1.0 1.2445427468349521 5.48485186268555
upperback -0.21066598816194804 2.841553042131607 3.0112449855209804
thorax -9.516701930723224 1.1642183482384603 -1.1307242144961864
lowerneck -21.083557781039005 -4.660158218095444 -1.6428306044500962
upperneck 10.655943614956247 -6.23677760235362 1.35553753687803
head 6.703025407640298 -2.9480295596891954 -0.1656844733177344
lclavicle -3.708612022675471e-15 -8.860565511117709e-15
lhumerus -55.78045887791294 -13.697132115882285 99.38227741058597
lradius 105.32546844993898
lwrist 36.06148976288736
lhand -30.630534702304175 -1.5220269289984893
lfingers 7.12502
lthumb -4.430544161244104 28.26623676766758
rclavicle -2.9249436365179813e-15 -8.154040289979943e-15
rhumerus -46.42533487883306 10.32800995696128 -96.8282306930727
rradius 122.82806001764536
rwrist -12.740826003012325
rhand -18.11213020028601 1.0
rfingers 7.12502
rthumb 8.167315717548162 7.623896845550156
58
root -0.6838504602646815 17.471465304734274 22.363462372276082 2.6619554280964284 -1.1226000479359157 -5.73540904447189
lfemur -38.842364737500915 5.249490961754235 -12.958259820680471
ltibia 98.50776980460955
lfoot -3.2189989091468 -8.442508607578132
ltoes -7.766742774674459
rfemur -1.7839201264993712 4.062961480451172 36.43685975539807
rtibia 41.410906154131936
rfoot -12.66948729026517 -11.573650937125926
rtoes -12.678400978144836
lowerback 1.0 1.3979750242775912 5.909031479836275
upperback -0.4405323220933505 3.035020360003473 2.7786034826407686
thorax -9.363963438522589 1.2310403341562701 -1.5104911829294796
lowerneck -20.59895209138167 -4.918367473048565 -1.6542395468911857
upperneck 11.002953631058713 -6.634506043937733 1.3659150715504322
head 6.735775089204185 -3.1432230462040915 -0.2088117709202003
lclavicle -3.0318270357235645e-15 -7.702895737021814e-15
lhumerus -56.73742470182244 -13.362389382214957 99.28438658347709
lradius 105.6061168266407
lwrist 37.086082533836816
lhand -30.8006902695397 -2.0100515332694155
lfingers 7.12502
lthumb -4.659902783402603 27.953246246764785
rclavicle -2.065329404163892e-15 -6.9027111895078726e-15
rhumerus -45.641115692665394 10.977415226535303 -96.75220555558383
rradius 123.73780361524753
rwrist -13.022258028811887
rhand -17.948819246773922 1.0
rfingers 7.12502
rthumb 8.174219489944162 8.67549511063631
59
root -0.6113613638416233 17.659964094350592 23.215297513375326 2.7321110930114494 0.4277942214817033 -5.536484160068206
lfemur -40.03181928757792 3.5689211195160992 -14.33388863278795
ltibia 91.55601498808481
lfoot -3.4311163004117904 -7.904825286362632
ltoes -9.595791660766603
rfemur 1.9181462581643878 3.120491710828187 35.58916264996294
rtibia 38.189596901750065
rfoot -5.717801241890539 -9.191687170405764
rtoes -9.967765484845991
lowerback 1.0 1.4367857042848557 6.205470957332432
upperback -0.7241647719509745 3.0742665977284296 2.525803035144875
thorax -9.260381942562557 1.2291316613479777 -1.860048703499603
lowerneck -19.956348810992605 -5.11498517926804 -1.6855496570477737
upperneck 11.40413261040749 -6.937671242848296 1.400784816830846
head 6.793500193349017 -3.288835968550774 -0.23021082924585345
lclavicle -2.2568168989492823e-15 -6.5919684166229575e-15
lhumerus -57.5598826109928 -12.972978469775327 99.12380061689328
lradius 105.83879316955984
lwrist 37.32210595493316
lhand -30.801723434014356 -2.089033562544887
lfingers 7.12502
lthumb -4.619985949089348 28.03852745019023
rclavicle -1.2475861026285103e-15 -5.703394877944481e-15
rhumerus -44.98829292781663 11.615631110714109 -96.64959170849602
rradius 124.67595995944598
rwrist -13.16145492636902
rhand -17.98729122548397 1.0
rfingers 7.12502
rthumb 7.834958470544473 9.191221640438021
60
root -0.5710863285593171 17.841816789592617 23.51272533486491 2.7060508596796313 2.0675775149499893 -5.309474494693789
lfemur -40.319120221619656 1.9317801170764568 -15.426647642908929
ltibia 83.4286287965476
lfoot -3.384555164414176 -8.406438499782528
ltoes -11.736999119015202
rfemur 4.97515224513554 2.4030071480325916 34.76526800650552
rtibia 35.19281665221098
rfoot 3.158151481446274 -6.421344420032056
rtoes -4.170807770366762
lowerback 1.0 1.4433494618125162 6.354540422804035
upperback -1.0940596934463054 3.0559615213489293 2.19727682734196
thorax -9.085341064808336 1.2163459933730345 -2.155691625254624
lowerneck -19.287461839640045 -5.277886153821538 -1.7370641119912367
upperneck 11.782620227582063 -7.196502979410207 1.4745525419825865
head 6.852181502397938 -3.4059368818157596 -0.22859109280887968
lclavicle -1.4139675479141696e-15 -5.5031555530568e-15
lhumerus -58.270721827818605 -12.572133052027185 98.91283416020747
lradius 106.047725835531
lwrist 36.75490182234999
lhand -30.935610245308677 -2.3320518118587654
lfingers 7.12502
lthumb -4.910752791588395 27.607684333898064
rclavicle -4.643425262051636e-16 -4.572075681614204e-15
rhumerus -44.48700294222142 12.237014673013366 -96.54110611207813
rradius 125.58474049055448
rwrist -13.194848490236566
rhand -17.839005515676646 1.0
rfingers 7.12502
rthumb 7.7007432800337465 10.126306487438779
61
root -0.5184300704071962 18.019001706960132 23.77039719460886 2.684311906607904 3.343610985080054 -4.983537206231328
lfemur -39.81980392610298 0.6518345536283829 -16.377526766469824
ltibia 74.58676082305064
lfoot -2.9934594763643445 -10.151334882716418
ltoes -13.598616798055048
rfemur 7.525753157789179 2.352489261172031 33.99977233285668
rtibia 33.022219678825344
rfoot 12.216752672132284 -4.513888409475939
rtoes 2.7833585071455644
lowerback 1.0 1.4718245725504322 6.326787752878558
upperback -1.3291064984125418 3.0405639322645124 1.8943211132185995
thorax -8.891612894428546 1.2078623670209927 -2.3269400332151235
lowerneck -18.79710155365619 -5.405191169135408 -1.8157419747327563
upperneck 12.137906017543338 -7.39774511344333 1.5852397083286107
head 6.922533460619278 -3.491595400513897 -0.20293070288195414
lclavicle -1.4277520078244204e-16 -4.252006292553583e-15
lhumerus -58.86685619671594 -12.185481672511077 98.6826490067546
lradius 106.29965010310333
lwrist 36.56678663330896
lhand -31.048114021982055 -2.3612826539167844
lfingers 7.12502
lthumb -4.837214761744165 27.801873015486553
rclavicle 7.030810765691684e-16 -3.2298461280433383e-15
rhumerus -44.13571561640421 12.848575860390808 -96.42493100588746
rradius 126.39021114615369
rwrist -13.124491674607153
rhand -17.885232994490934 1.0
rfingers 7.12502
rthumb 7.364679145285499 10.422894791536017
62
root -0.47862277707146544 18.180816081448604 25.604417121120385 2.7813768809345576 4.266153160938622 -4.758639487064199
lfemur -38.821457456063634 -0.3038209996728084 -16.98747692470867
ltibia 65.42816914252656
lfoot -1.8297336766387562 -12.972992373030447
ltoes -14.601753525660708
rfemur 9.543866814326204 3.161601575655914 33.816454577817574
rtibia 32.42096091038838
rfoot 18.80982154077602 -4.314009543604264
rtoes 6.810114244993349
lowerback 1.0 1.5359008151773708 6.305124507474396
upperback -1.5289057414999347 3.103929283737418 1.6883652133064508
thorax -8.623880102762955 1.2382299078104062 -2.445301329151982
lowerneck -18.507898377685628 -5.477116925854394 -1.8867899480027834
upperneck 12.406054456096053 -7.52030894956526 1.7380018534600932
head 6.996107332816128 -3.537381082821237 -0.15095720236624877
lclavicle -3.7883687560797375e-17 -4.200996272322445e-15
lhumerus -59.320774881451094 -11.818898601774208 98.4800024946272
lradius 106.63702138938946
lwrist 36.62278017224792
lhand -31.180893892912955 -2.292495629757342
lfingers 7.12502
lthumb -4.928491923340674 27.751456744812646
rclavicle 7.701057097136845e-16 -3.2250966523224137e-15
rhumerus -43.95644365501709 13.40066217937361 -96.33991176577082
rradius 127.07891659763189
rwrist -12.941496580460672
rhand -17.786385241800794 1.0
rfingers 7.12502
rthumb 7.319779968112442 10.98469989538417
63
root -0.4258597889091142 18.32981726719383 27.91310225175303 2.9280212742127247 4.972242045087498 -4.472141999212964
lfemur -37.42382297332662 -1.0789720324449048 -17.63886972616399
ltibia 56.34163834671267
lfoot 0.39886660442768873 -15.909871361912996
ltoes -14.354771994842295
rfemur 10.458029928752396 4.305856699655599 33.84125149778282
rtibia 33.779606801472966
rfoot 21.664076363736214 -5.25308580278815
rtoes 8.576635509501232
lowerback 1.0 1.5918685275546198 6.182788875383949
upperback -1.712042314585922 3.163387231173398 1.5271647081622846
thorax -8.36193389680682 1.272581292289544 -2.5183800864555748
lowerneck -18.485106720150764 -5.542613612825318 -1.960999312264692
upperneck 12.573873378293765 -7.627790676051136 1.9231777695059278
head 7.081870492578556 -3.5727116332183275 -0.0850641767311221
lclavicle 1.7609811842461922e-16 -4.064632809193564e-15
lhumerus -59.699369546044075 -11.537304663353202 98.30106130979735
lradius 107.15134635145962
lwrist 36.651251805440694
lhand -31.173314926228894 -2.0668627623145026
lfingers 7.12502
lthumb -4.783721341855258 28.096941708901692
rclavicle 8.604585830611472e-16 -3.19010267647388e-15
rhumerus -43.89648062513626 13.903111177660056 -96.3270909884769
rradius 127.61376065507784
rwrist -12.667707323220228
rhand -17.79449261483958 1.0
rfingers 7.12502
rthumb 7.1420569371422715 10.869362328131778
64
root -0.4193233859740304 18.393944156650008 27.86753303588679 2.8884395368581055 5.174902109645045 -4.457325974698901
lfemur -36.06618988496416 -1.409740605275627 -18.034852366925367
ltibia 47.85098212421437
lfoot 3.2536883375874424 -17.530369963556197
ltoes -13.762015327563507
rfemur 10.54881223325075 5.375367884619941 34.20568355492207
rtibia 37.301665626106626
rfoot 22.550772745552184 -6.097478720422133
rtoes 9.033802652681702
lowerback 1.0 1.6705090404435858 6.092216805696473
upperback -1.8235865555147242 3.2515124864525102 1.4315397290123508
thorax -8.26904843218313 1.3221559019064202 -2.546068304470197
lowerneck -18.608819302056173 -5.576902042243639 -2.01667428663706
upperneck 12.551725403236556 -7.689946415345231 2.116105324325615
head 7.125578997804305 -3.58610991856124 -0.017324353642839574
lclavicle -7.181941189866275e-16 -4.96419560599812e-15
lhumerus -59.91471490594429 -11.353553051024697 98.16738066911186
lradius 107.79397343155273
lwrist 36.70293186303884
lhand -31.134095092384932 -1.7984807289805758
lfingers 7.12502
lthumb -4.838447338873408 28.314107556870002
rclavicle 6.681841644912857e-17 -4.191442507957773e-15
rhumerus -43.95964975420729 14.343571847479568 -96.42559312450943
rradius 127.97162289260062
rwrist -12.342863836452787
rhand -17.73126775045251 1.0
rfingers 7.12502
rthumb 7.202535718526679 11.117537360580027
